<svg width="58" height="52" viewBox="0 0 58 52" fill="none" xmlns="http://www.w3.org/2000/svg">
<path d="M57.2998 1.10798C57.2587 1.38294 35.3131 0.76191 27.0973 1.10798C18.8816 1.45404 14.3693 4.44009 11.1164 6.82588C3.82326 11.5537 1 20.0212 1 26.0324C0.999999 32.0435 3.05389 38.6735 9.35693 43.9192C16.1399 49.4389 26.772 51.3193 29.1499 50.9568L27.9289 50.6635C27.456 50.6562 23.584 50.4312 20.6462 45.0922C17.5123 39.3969 15.6613 35.269 15.6613 27.7917C15.6613 20.3144 18.6753 17.7949 27.6837 15.7693H42.6383V27.6451C42.395 32.0936 42.0306 34.4489 40.8789 38.3479C38.9595 44.4674 37.2136 47.8778 31.0558 50.6635L29.1499 50.9568C37.7583 50.6474 41.7356 49.1792 47.7698 44.9455C53.859 39.7544 56.1101 36.0471 57.2998 27.4985V1.10798Z" fill="#EEEEEE"/>
<path d="M29.1499 50.9568C26.772 51.3193 16.1399 49.4389 9.35693 43.9192C3.05389 38.6735 0.999999 32.0435 1 26.0324C1 20.0212 3.82326 11.5537 11.1164 6.82588C14.3693 4.44009 18.8816 1.45404 27.0973 1.10798C35.3131 0.76191 57.2587 1.38294 57.2998 1.10798V27.4985C56.1101 36.0471 53.859 39.7544 47.7698 44.9456C41.7356 49.1792 37.7583 50.6474 29.1499 50.9568ZM29.1499 50.9568L27.9289 50.6635M29.1499 50.9568L31.0558 50.6635C37.2136 47.8778 38.9595 44.4674 40.8789 38.3479C42.0306 34.4489 42.395 32.0936 42.6383 27.6451V15.7693H27.6837C18.6753 17.7949 15.6613 20.3144 15.6613 27.7917C15.6613 35.269 17.5123 39.3969 20.6462 45.0922C23.584 50.4312 27.456 50.6562 27.9289 50.6635M27.9769 50.6635C27.9769 50.6635 27.9605 50.664 27.9289 50.6635" stroke="#EEEEEE"/>
</svg>
